HIERARCHY
ROOT Root
{
	OFFSET 0.00 0.00 0.00
	CHANNELS 6 Xposition Yposition Zposition Xrotation Yrotation Zrotation
	JOINT L_Femur
	{
		OFFSET 2.78527 0.00000 0.00000
		CHANNELS 3 Xrotation Yrotation Zrotation
		JOINT L_Tibia
		{
			OFFSET 0.00000 -16.41095 0.00000
			CHANNELS 3 Xrotation Yrotation Zrotation
			JOINT L_Foot
			{
				OFFSET 0.00000 -14.21163 0.00000
				CHANNELS 3 Xrotation Yrotation Zrotation
				JOINT L_Toe
				{
					OFFSET 0.00000 -1.60827 6.00215
					CHANNELS 3 Xrotation Yrotation Zrotation
					End Site
					{
						OFFSET 0.00000 0.00000 2.95275
					}
				}
			}
		}
	}
	JOINT R_Femur
	{
		OFFSET -2.78527 0.00000 0.00000
		CHANNELS 3 Xrotation Yrotation Zrotation
		JOINT R_Tibia
		{
			OFFSET 0.00000 -16.41095 0.00000
			CHANNELS 3 Xrotation Yrotation Zrotation
			JOINT R_Foot
			{
				OFFSET 0.00000 -14.21163 0.00000
				CHANNELS 3 Xrotation Yrotation Zrotation
				JOINT R_Toe
				{
					OFFSET 0.00000 -1.60827 6.00215
					CHANNELS 3 Xrotation Yrotation Zrotation
					End Site
					{
						OFFSET 0.00000 0.00000 2.95275
					}
				}
			}
		}
	}
	JOINT LowerBack
	{
		OFFSET 0.00000 0.03937 0.00000
		CHANNELS 3 Xrotation Yrotation Zrotation
		JOINT Thorax
		{
			OFFSET 0.00000 7.01329 0.00000
			CHANNELS 3 Xrotation Yrotation Zrotation
			JOINT Neck
			{
				OFFSET 0.00000 7.25825 0.00000
				CHANNELS 3 Xrotation Yrotation Zrotation
				JOINT Head
				{
					OFFSET 0.00000 5.63334 0.00000
					CHANNELS 3 Xrotation Yrotation Zrotation
					End Site
					{
						OFFSET 0.00000 4.52755 0.00000
					}
				}
			}
			JOINT L_Collar
			{
				OFFSET 0.00000 7.25825 0.00000
				CHANNELS 3 Xrotation Yrotation Zrotation
				JOINT L_Humerus
				{
					OFFSET 6.91821 -0.00003 0.00000
					CHANNELS 3 Xrotation Yrotation Zrotation
					JOINT L_Elbow
					{
						OFFSET 10.34006 -0.00004 0.00000
						CHANNELS 3 Xrotation Yrotation Zrotation
						JOINT L_Wrist
						{
							OFFSET 7.25554 -0.00003 0.00000
							CHANNELS 3 Xrotation Yrotation Zrotation
							JOINT L_Thumb
							{
								OFFSET 0.00000 0.00000 0.00000
								CHANNELS 3 Xrotation Yrotation Zrotation
								End Site
								{
									OFFSET 0.00000 0.00000 3.93700
								}
							}
							JOINT L_Wrist_End
							{
								OFFSET 3.93700 -0.00001 0.00000
								CHANNELS 3 Xrotation Yrotation Zrotation
							}
						}
					}
				}
			}
			JOINT R_Collar
			{
				OFFSET 0.00000 7.25825 0.00000
				CHANNELS 3 Xrotation Yrotation Zrotation
				JOINT R_Humerus
				{
					OFFSET -6.91821 -0.00003 0.00000
					CHANNELS 3 Xrotation Yrotation Zrotation
					JOINT R_Elbow
					{
						OFFSET -10.34006 -0.00004 0.00000
						CHANNELS 3 Xrotation Yrotation Zrotation
						JOINT R_Wrist
						{
							OFFSET -7.25554 -0.00003 0.00000
							CHANNELS 3 Xrotation Yrotation Zrotation
							JOINT R_Thumb
							{
								OFFSET 0.00000 0.00000 0.00000
								CHANNELS 3 Xrotation Yrotation Zrotation
								End Site
								{
									OFFSET 0.00000 0.00000 3.93700
								}
							}
							JOINT R_Wrist_End
							{
								OFFSET -5.39369 -0.00002 0.00000
								CHANNELS 3 Xrotation Yrotation Zrotation
							}
						}
					}
				}
			}
		}
	}
}
MOTION
Frames: 16
Frame Time: 0.066664
 0.9409 32.3381 1.5643 14.5322 -33.1260 -3.2111 -63.6051 47.5417 51.9174 29.0799 -0.0000 0.0000 -8.1099 -3.4696 -2.0791 -3.0370 -0.0000 0.0000 -9.0144 2.4932 1.8896 2.9040 0.0000 0.0000 -10.9888 18.0285 7.4255 -8.2451 0.0000 0.0000 -4.4762 -3.4904 -11.2007 1.9607 -3.5484 12.1379 5.2634 -34.8304 12.5419 -22.6627 67.3501 7.0686 0.5975 31.7447 22.6098 -1.7614 -0.4480 -41.2670 -0.0001 -19.1648 -0.0000 -12.9269 -0.4874 -2.1596 -0.0000 0.0000 -0.0000 -0.0000 0.0000 -0.0000 3.4274 -14.8541 -16.6339 -37.9437 -28.2688 41.0004 -0.0001 18.2247 0.0000 3.9620 2.2945 -13.5768 -0.0000 0.0000 -0.0000 -0.0000 0.0000 -0.0000
 1.4495 32.2906 2.9267 10.3937 -29.5022 -7.7988 -52.9645 42.3063 45.7684 31.5376 -0.0000 0.0000 -12.5002 -1.3139 -5.3028 -2.3892 0.0000 0.0000 -8.7124 -12.8780 -0.9125 14.5474 -0.0000 0.0000 -18.6235 29.8118 18.7884 -7.9908 0.0000 -0.0000 -4.5026 -1.7203 -11.7756 0.8658 -1.7019 9.5633 3.5317 -34.7422 11.7445 -19.5334 63.9992 8.8016 -0.6167 33.5251 22.4756 -7.5189 9.5631 -44.2201 -0.0001 -19.7642 -0.0000 -16.6271 -2.2624 -2.1991 -0.0000 -0.0000 0.0000 -0.0000 -0.0000 0.0000 2.4782 -12.6449 -18.2574 -42.5898 -31.2399 41.6185 -0.0001 16.5482 0.0000 4.4416 2.1862 -14.0524 -0.0000 0.0000 -0.0000 -0.0000 0.0000 -0.0000
 2.2074 32.2611 4.7245 4.0641 -23.1010 -12.2532 -37.9151 34.9934 36.9622 34.3628 -0.0000 0.0000 -17.0341 3.2428 -4.4955 -2.2270 0.0000 0.0000 -11.8027 -15.0659 -10.7804 36.9387 -0.0000 0.0000 -19.5318 28.8209 23.6328 -8.5080 0.0000 -0.0000 -4.4991 -0.2511 -11.5743 0.4981 -0.1077 8.9234 1.8998 -35.0641 9.3476 -8.6752 62.2825 2.3000 -0.5201 35.8429 19.9200 -9.1430 17.4424 -45.3704 -0.0001 -20.0334 -0.0000 -19.2664 -3.1815 -3.0792 -0.0000 0.0000 -0.0000 -0.0000 0.0000 -0.0000 1.8836 -10.9574 -18.8666 -45.0688 -27.1221 41.5979 -0.0001 19.8000 0.0000 3.6525 3.1978 -14.0444 -0.0000 0.0000 -0.0000 -0.0000 0.0000 -0.0000
 3.3673 32.4126 6.3576 1.1187 -13.6237 -14.3608 -28.0373 29.5876 30.2062 34.3498 -0.0000 0.0000 -19.7242 2.0175 -2.9819 -2.1654 0.0000 0.0000 -13.0099 -13.9958 -22.4942 36.9817 -0.0000 0.0000 -10.3673 24.9612 14.2264 -8.5719 0.0000 0.0000 -5.1239 1.1066 -10.3456 0.0661 1.0293 9.2469 0.4988 -35.0122 7.8973 -0.7416 62.1602 -2.7936 -1.4187 37.7514 18.2629 -10.2148 22.6990 -45.4567 -0.0001 -23.2011 -0.0000 -21.4300 -4.1443 -3.8154 -0.0000 0.0000 -0.0000 -0.0000 0.0000 -0.0000 1.9429 -9.6609 -19.1043 -45.5290 -24.1245 41.6356 -0.0001 28.0540 0.0000 -0.3953 6.0910 -15.0711 -0.0000 -0.0000 0.0000 -0.0000 -0.0000 0.0000
 4.6058 32.6215 7.3278 -1.5880 -6.4048 -14.7641 -19.7265 26.2380 24.5445 32.4049 -0.0000 0.0000 -20.3527 1.0747 -0.3960 -2.2563 0.0000 0.0000 -15.9462 -12.2970 -32.4466 24.0218 0.0000 0.0000 -7.9868 12.2090 3.8780 -8.1768 0.0000 0.0000 -5.7103 2.5939 -8.7970 1.2158 2.5423 9.3838 -0.3802 -33.0906 7.2230 6.5984 64.3943 -8.9916 -1.4274 38.6740 17.8261 -11.6157 27.6938 -45.6803 -0.0001 -27.0878 -0.0000 -24.9213 -6.0701 -2.4374 -0.0000 0.0000 -0.0000 -0.0000 0.0000 -0.0000 1.6443 -7.2702 -19.6713 -50.8611 -20.2232 44.6137 -0.0001 33.2597 0.0000 -1.8217 7.3262 -14.1567 -0.0000 -0.0000 0.0000 -0.0000 -0.0000 0.0000
 5.8467 32.7188 7.7982 -2.6837 2.7421 -12.8378 -11.9482 17.7492 16.1420 29.9675 -0.0000 0.0000 -20.0063 3.1054 2.7742 -2.3458 0.0000 0.0000 -27.3917 -19.2157 -41.4919 6.7321 -0.0000 -0.0000 1.6608 -3.7359 -8.5657 -8.0372 0.0000 -0.0000 -5.7736 3.4484 -7.8794 1.4774 3.4451 9.2900 -0.7094 -31.3297 7.6430 21.5837 65.0145 -21.7645 -1.9246 38.3639 16.7936 -15.0866 25.2934 -44.2388 -0.0001 -30.4459 -0.0000 -24.9147 -5.9647 -3.1895 -0.0000 -0.0000 0.0000 -0.0000 -0.0000 0.0000 1.2064 -5.7649 -20.4889 -55.5606 -13.3350 48.9304 -0.0002 39.4062 0.0001 -4.4596 9.0921 -13.8923 -0.0000 -0.0000 0.0000 -0.0000 -0.0000 0.0000
 6.4941 32.7462 7.7562 -3.9316 10.4397 -11.6501 -8.3197 10.3176 12.1725 29.1577 -0.0000 0.0000 -19.1209 3.6395 4.3552 -2.4360 -0.0000 0.0000 -48.9781 -33.9939 -42.7783 -5.2500 0.0000 0.0000 4.1364 -8.9255 1.4300 -8.3782 -0.0000 -0.0000 -5.2635 4.3490 -7.4035 2.2225 4.6263 10.8389 -0.8885 -29.0882 7.0967 31.7938 66.0966 -30.2793 -2.6483 37.9648 16.4761 -19.1534 17.6375 -42.3403 -0.0002 -37.0769 -0.0001 -28.5819 -6.1463 -4.4953 -0.0000 0.0000 -0.0000 -0.0000 0.0000 -0.0000 0.1874 -2.8041 -22.1285 -59.9116 -3.5450 53.3048 -0.0002 45.6933 0.0001 -3.9985 9.2701 -13.2798 -0.0000 0.0000 -0.0000 -0.0000 0.0000 -0.0000
 6.7243 32.5743 7.3691 -2.8654 21.9780 -9.8523 -9.8656 3.7595 8.9805 30.5547 -0.0000 0.0000 -18.2114 -1.3474 3.7499 -2.4610 -0.0000 0.0000 -49.6867 -26.5590 -31.4912 0.2085 -0.0000 -0.0000 8.3750 0.6635 0.2770 -8.4358 0.0000 0.0000 -4.3344 4.5446 -7.4575 2.1069 5.2104 10.4701 -1.0013 -27.8105 6.5052 36.5816 66.4011 -34.9381 -3.3760 35.8180 17.2728 -26.7959 4.2455 -38.4562 -0.0002 -46.3532 -0.0001 -31.5604 -6.6058 -5.4574 -0.0000 0.0000 -0.0000 -0.0000 0.0000 -0.0000 -1.0188 -0.4631 -23.6708 -66.0022 5.5965 55.1371 -0.0003 51.5617 0.0001 -2.5179 9.0261 -13.5676 -0.0000 0.0000 -0.0000 -0.0000 0.0000 -0.0000
 6.4010 32.5906 7.3143 0.5250 40.8797 -11.0402 -13.2494 -4.7085 7.8088 30.5297 -0.0000 0.0000 -15.5469 -12.5473 1.4438 -2.8017 0.0000 0.0000 -46.6584 -24.7582 -17.0682 -0.6984 0.0000 0.0000 11.4918 1.7676 3.8081 -8.4540 0.0000 0.0000 -3.4629 3.7953 -7.9587 2.1381 4.7610 9.3214 -0.2580 -27.4907 6.6571 32.9625 66.4559 -33.4962 -5.2441 30.7576 21.3929 -40.4590 -8.2490 -38.3796 -0.0003 -54.4083 -0.0002 -35.8492 -8.1245 -5.4070 -0.0000 -0.0000 0.0000 -0.0000 -0.0000 0.0000 -1.8698 0.1931 -24.7669 -71.3496 11.4444 52.6870 -0.0004 59.5804 0.0002 -2.3657 8.9594 -13.0203 -0.0000 0.0000 -0.0000 -0.0000 0.0000 -0.0000
 6.2527 32.9449 7.6821 14.8291 69.1208 -23.9877 -15.9585 -10.0228 6.6592 23.9259 0.0000 0.0000 -9.8184 -33.1278 -0.3017 -4.2603 0.0000 -0.0000 -44.6494 -17.8078 -6.5174 -3.4198 0.0000 0.0000 10.3987 6.3061 6.1496 -8.0857 0.0000 -0.0000 -2.4066 1.6163 -8.3276 1.5248 2.8615 9.2858 1.0506 -29.0623 7.8640 29.8623 63.2038 -32.6773 -7.9240 24.5825 25.7200 -62.4620 -14.9252 -52.0047 -0.0003 -58.2245 -0.0002 -33.2727 -8.5141 -5.0238 -0.0000 0.0000 -0.0000 -0.0000 0.0000 -0.0000 -2.2805 -1.5642 -25.7288 -73.9695 14.6488 45.9967 -0.0005 67.2901 0.0003 -2.5712 9.3087 -13.6000 -0.0000 0.0000 -0.0000 -0.0000 0.0000 -0.0000
 6.7614 33.4568 8.1369 148.1422 71.4424 -158.0328 -16.7602 2.4821 5.3064 15.9798 -0.0000 0.0000 -2.5642 -53.4345 0.3189 -6.0061 -0.0000 -0.0000 -47.3706 -7.8276 -4.0024 -3.2198 -0.0000 -0.0000 9.7744 15.4071 11.1750 -7.8200 -0.0000 -0.0000 -1.5085 -1.4783 -8.4097 1.2659 -0.1398 11.3624 2.5992 -31.6161 10.7089 23.8740 58.0396 -29.7595 -10.2103 16.7494 30.4800 -79.2918 -8.9208 -67.4987 -0.0005 -65.6325 -0.0003 -31.6212 -9.1525 -3.6559 -0.0000 -0.0000 0.0000 -0.0000 -0.0000 0.0000 -3.0522 -5.6017 -25.4291 -72.4027 14.9622 36.4638 -0.0008 75.5121 0.0006 -3.0706 9.0944 -12.9518 -0.0000 0.0000 -0.0000 -0.0000 0.0000 -0.0000
 7.8456 33.7818 8.0704 163.9246 35.9964 -178.8340 -12.2495 27.9566 1.9405 13.6727 -0.0000 0.0000 1.2236 -44.0310 12.1812 -6.8297 -0.0000 -0.0000 -48.9835 1.8688 -5.2019 -1.4877 0.0000 0.0000 4.2753 14.3388 10.9113 -8.0284 0.0000 -0.0000 -2.4764 -4.0524 -7.7738 1.1180 -3.4806 16.0864 4.8911 -32.8948 14.9630 16.7220 51.0831 -26.7964 -11.7905 9.4594 34.3905 -87.6132 -0.3625 -75.9091 -0.0006 -71.7420 -0.0005 -34.9275 -10.6752 -2.7920 -0.0000 -0.0000 0.0000 -0.0000 -0.0000 0.0000 -4.0105 -8.5635 -24.0725 -70.3860 11.1383 27.2057 -0.0016 82.7233 0.0015 -3.2181 9.0963 -12.8719 -0.0000 0.0000 -0.0000 -0.0000 0.0000 -0.0000
 9.2166 33.6210 7.6961 163.9660 -2.0167 169.5869 -10.5107 33.7943 4.3744 14.9733 -0.0000 0.0000 -4.4853 -37.0793 13.4333 -10.7621 0.0000 -0.0000 -45.3489 12.2376 -9.9419 -0.6810 -0.0000 0.0000 0.9018 15.3234 10.8262 -8.1287 0.0000 -0.0000 -2.8636 -7.1538 -8.9345 0.9126 -7.2553 22.5694 6.8615 -30.3703 18.2915 1.8237 41.9088 -17.7271 -12.1732 2.8011 37.3998 -95.0802 1.2396 -75.6837 -0.0007 -73.8884 -0.0005 -38.1545 -13.5186 -1.9538 -0.0000 -0.0000 0.0000 -0.0000 -0.0000 0.0000 -4.7949 -10.9649 -22.0649 -75.8571 4.1263 20.7001 -0.0064 88.1083 0.0062 -3.8447 8.6536 -12.4031 -0.0000 -0.0000 0.0000 -0.0000 -0.0000 0.0000
 10.1736 33.5623 6.5649 160.8327 -33.5689 161.0595 -10.7710 38.0753 9.9736 16.5315 -0.0000 0.0000 -7.6132 -36.4943 9.7246 -12.5276 0.0000 -0.0000 -36.1902 17.2037 -14.5214 0.4630 0.0000 -0.0000 -4.2242 25.1041 17.4654 -8.2351 0.0000 0.0000 -2.9124 -7.2765 -9.1686 0.4439 -7.6645 21.9721 6.7297 -26.6554 17.8855 -4.0139 33.8233 -13.4650 -12.8672 2.5143 38.1660 -95.2799 -2.7399 -73.6391 -0.0012 -79.9464 -0.0010 -37.3696 -13.9651 -1.8238 -0.0000 0.0000 -0.0000 -0.0000 0.0000 -0.0000 -5.5727 -10.8188 -21.9678 -81.8084 -0.6739 18.0971 -179.9978 84.4449 179.9976 -3.0946 8.1553 -12.0811 -0.0000 -0.0000 0.0000 -0.0000 -0.0000 0.0000
 10.1691 33.7521 4.9717 150.6490 -62.0639 148.8209 -11.2814 41.7995 13.9367 17.8910 -0.0000 0.0000 -4.3949 -29.3560 8.5438 -12.5762 -0.0000 0.0000 -24.8329 15.0336 -16.7365 6.2427 -0.0000 -0.0000 -8.4047 27.9551 19.4308 -8.4789 0.0000 -0.0000 -3.9984 -6.0802 -7.6642 -0.0246 -6.9004 17.4393 5.4568 -23.6767 17.2562 0.6763 29.0574 -15.3765 -11.7034 4.5663 36.2082 -92.3138 -8.4614 -70.3744 -0.0014 -81.5962 -0.0012 -37.5653 -14.7789 -2.1389 -0.0000 -0.0000 0.0000 -0.0000 -0.0000 0.0000 -5.5309 -9.0493 -23.5960 -82.5506 2.8839 18.9959 -179.9965 86.5739 179.9963 -7.4826 10.1923 -11.8317 -0.0000 -0.0000 0.0000 -0.0000 -0.0000 0.0000
 9.6113 33.7175 3.3010 59.0484 -78.0703 56.9861 -15.5389 46.2457 18.7084 17.3191 -0.0000 0.0000 -0.9903 -23.7458 7.5042 -9.6008 0.0000 -0.0000 -12.8220 18.6171 -15.7681 11.2392 -0.0000 0.0000 -13.6184 36.7661 22.4061 -9.3168 0.0000 -0.0000 -4.4528 -5.5051 -7.4675 -0.5432 -6.3806 13.4153 3.4838 -22.6846 15.6370 3.3938 26.3192 -12.8775 -11.5929 4.8038 36.8365 -91.4982 -13.5205 -63.8928 -0.0012 -79.8211 -0.0010 -37.3270 -14.3690 -2.5493 -0.0000 0.0000 -0.0000 -0.0000 0.0000 -0.0000 -6.7400 -7.8184 -25.2035 -83.0621 6.3352 21.0340 -0.0023 84.7821 0.0021 -11.5727 12.7500 -10.0749 -0.0000 0.0000 -0.0000 -0.0000 0.0000 -0.0000
